<svg xmlns="http://www.w3.org/2000/svg" viewBox="0 0 512 512"><rect width="512" height="512" rx="80" fill="#0d1117"/><rect x="80" y="100" width="352" height="312" rx="12" fill="none" stroke="#1a2332" stroke-width="2"/><line x1="80" y1="204" x2="432" y2="204" stroke="#1e3a5f" stroke-width="2"/><line x1="80" y1="308" x2="432" y2="308" stroke="#1e3a5f" stroke-width="2"/><line x1="197" y1="100" x2="197" y2="412" stroke="#1e3a5f" stroke-width="2"/><line x1="314" y1="100" x2="314" y2="412" stroke="#1e3a5f" stroke-width="2"/><rect x="196" y="196" width="120" height="72" rx="4" fill="none" stroke="#58a6ff" stroke-width="8"/><line x1="196" y1="196" x2="256" y2="155" stroke="#58a6ff" stroke-width="6"/><line x1="316" y1="196" x2="256" y2="155" stroke="#58a6ff" stroke-width="6"/><line x1="210" y1="210" x2="302" y2="254" stroke="#58a6ff" stroke-width="7" stroke-linecap="round"/><line x1="302" y1="210" x2="210" y2="254" stroke="#58a6ff" stroke-width="7" stroke-linecap="round"/><circle cx="380" cy="340" r="28" fill="none" stroke="#d29922" stroke-width="5"/><line x1="380" y1="308" x2="380" y2="320" stroke="#d29922" stroke-width="5" stroke-linecap="round"/><line x1="380" y1="360" x2="380" y2="372" stroke="#d29922" stroke-width="5" stroke-linecap="round"/><line x1="348" y1="340" x2="360" y2="340" stroke="#d29922" stroke-width="5" stroke-linecap="round"/><line x1="400" y1="340" x2="412" y2="340" stroke="#d29922" stroke-width="5" stroke-linecap="round"/></svg>